<?xml version="1.0" standalone="no"?>
<!DOCTYPE svg PUBLIC "-//W3C//DTD SVG 20010904//EN"
 "http://www.w3.org/TR/2001/REC-SVG-20010904/DTD/svg10.dtd">
<svg version="1.0" xmlns="http://www.w3.org/2000/svg"
 width="241.000000pt" height="241.000000pt" viewBox="0 0 241.000000 241.000000"
 preserveAspectRatio="xMidYMid meet">
<metadata>
Created by potrace 1.11, written by Peter Selinger 2001-2013
</metadata>
<g transform="translate(0.000000,241.000000) scale(0.100000,-0.100000)"
fill="#000000" stroke="none">
<path d="M1033 2039 c-98 -19 -226 -73 -310 -130 -107 -73 -233 -215 -274
-309 -6 -14 -17 -36 -24 -50 -19 -36 -53 -153 -62 -208 -9 -60 -9 -216 0 -264
20 -107 27 -131 70 -228 88 -200 286 -377 505 -449 95 -31 136 -36 277 -35
152 0 240 21 370 85 208 103 369 299 435 531 27 92 36 258 21 356 -47 302
-256 558 -546 667 -138 52 -306 64 -462 34z"/>
</g>
</svg>
